<svg xmlns="http://www.w3.org/2000/svg" version="1.1" xmlns:xlink="http://www.w3.org/1999/xlink" xmlns:svgjs="http://svgjs.dev/svgjs" width="1000" height="1000" viewBox="0 0 1000 1000"><rect width="1000" height="1000" fill="#cf5260"></rect><g transform="matrix(0.7,0,0,0.7,150.0000000000001,106.25)"><svg viewBox="0 0 320 360" data-background-color="#cf5260" preserveAspectRatio="xMidYMid meet" height="1125" width="1000" xmlns="http://www.w3.org/2000/svg" xmlns:xlink="http://www.w3.org/1999/xlink"><g id="tight-bounds" transform="matrix(1,0,0,1,0,0)"><svg viewBox="0 0 320 360" height="360" width="320"><g><svg></svg></g><g><svg viewBox="0 0 320 360" height="360" width="320"><g><path xmlns="http://www.w3.org/2000/svg" d="M20.961 227.22l3.726 4.658-1.863-6.056c-0.466-2.795-3.726 0.466-1.863 1.398M25.153 224.425c1.397 2.329 2.795 4.658 2.795 6.987 0 3.261 2.795 4.658 5.123 5.589-3.261-3.726-5.124-13.974-7.918-12.576M204.017 26.929c7.918 0 15.371-0.932 23.756 0.931 20.495 5.124 37.729 15.371 49.374 29.811l32.606 52.169c1.397 13.042 4.192 27.482 3.726 43.319 3.261 0 2.795-4.658 6.521-5.59-3.726 9.316-5.59 20.961-6.521 34.469-2.329-7.453 0-18.632 0.466-24.687-3.261 5.124-5.124 1.397-5.124-0.932 0.466-3.726-1.397-3.261-2.795-4.658-5.124-4.658-8.384-9.782-12.11-17.7 2.329-6.055 2.795-14.905-4.658-19.563-2.329-1.397-5.124-3.726-6.521-7.453-1.863-5.124-5.124-11.179-4.193-19.097 0.466-2.329-6.987 5.124-11.179 1.863-18.166-12.576-36.332-27.016-58.224-39.127-11.645 0-20.029-4.192-24.221-9.316-3.726-4.658-0.932-10.713 4.658-11.179 3.261 0 6.987-0.932 9.782 0.932 0.466-1.863 2.329-4.192 4.657-4.192M157.904 16.215l0.932 0.466c4.658 0.932 6.987 7.453 12.11 5.124 0 3.261 0.466 6.521-0.466 8.85-1.397 3.726-5.59 3.726-8.85 3.726-31.208-1.863-49.374 11.179-68.471 22.358-5.124 3.261-10.713 5.59-14.906 9.782-20.029 18.632-41.921 35.866-47.045 70.335l-4.192 38.195c-0.466 4.192-5.124 8.384-4.192 13.508l3.26 22.824c-3.261-3.261-5.124 0.932-4.192 2.795 0.466 1.397 2.329 6.055 5.124 1.863 3.726 6.987 7.453 20.495 12.576 26.55 15.837 18.632 36.332 35.4 53.101 52.169 4.192-0.932 7.453-0.932 8.384-3.727 1.397 2.795-1.397 5.59-3.726 6.056 7.453 4.658 15.837 8.85 27.016 9.781 14.44 0.932 27.948 3.261 40.524 6.522 6.521-1.863 13.042-2.795 20.029-3.261 2.329 0 3.726-3.726 6.521-4.658l0.466-4.658c2.795 4.192 2.329-1.397 0.466-4.192 3.261 2.795 4.192 5.124 5.589 6.987 0-1.397 3.726-6.521 3.727-0.466l0.931-6.055c1.397-0.932 1.863 5.124 3.261 0.931 1.397-4.192 4.192-0.932 6.987-2.329-0.932 1.863-0.466 5.59 2.794 3.261l3.727-3.261c2.329 5.59 6.055 3.261 7.918 2.329 20.495-13.042 40.99-28.413 60.553-43.784l-0.466 6.055 2.329-7.453c2.329 2.329 4.192 0.466 5.124-0.931 2.795-4.658 6.521-9.316 12.577-13.508-7.453 20.029-16.303 35.866-27.482 48.908l-4.658 5.59c0 3.261-0.932 7.453-4.658 7.918-1.863 0.466-5.59-0.932-8.384 1.863-1.397 1.863 3.261 5.59-0.466 2.795-3.261-2.329-6.521 0-10.248 0.932-2.795 0.932 1.863 3.726 2.795 5.589 0.932 1.863 1.863 3.726 1.398 6.056l-5.124-5.59c-6.055 3.261-9.782 9.316-14.906 13.974-2.329 1.863-1.397 5.124-1.397 7.918-3.261 0-6.987-0.932-8.85 0.932-1.397 1.863-0.932 4.658-0.932 7.453-4.658-0.466-5.124-7.453-9.315-6.056-4.192 0.932-8.85 1.397-12.577 3.727 2.795 5.59-4.658 2.329-3.726 3.26-6.987-4.192-13.042-7.453-20.495-4.658-15.837-5.124-35.4-2.795-49.84-0.931 0-2.329 0.466-4.658-0.466-5.124-0.932 2.329-3.726 1.397-3.26 1.397-8.85-6.055-17.7-9.782-27.016-14.905-8.384 0.932-16.303-3.261-18.632-5.59-6.521-6.055-13.974-2.795-20.029-4.192-13.042-3.261-17.7-16.769-19.098-26.084-0.932-4.658-4.658-6.521-6.055-6.056-6.055-19.563-15.371-37.263-22.824-55.429-1.863-4.658-1.397-9.316-1.397-14.44 2.329 0.932 4.658 0.466 4.192-2.794-2.329-15.371-7.918-27.016-13.974-38.195 3.261-15.837 3.726-34.469 11.179-48.443 6.521-12.576 18.632-19.098 27.016-29.811 2.795-3.726 2.795-8.85 5.59-12.11 9.316-9.316 18.632-19.098 28.879-27.482 4.658-3.726 10.247 0 17.234-1.397 2.329-8.384 11.645-15.837 20.495-13.508 3.726 0.932 11.179-8.85 13.508-9.782 3.726-1.397 1.863 3.726 1.863 6.987 8.85-6.987 20.961-10.713 32.14-14.906" fill="#f0f0f0" fill-rule="nonzero" stroke="none" stroke-width="1" stroke-linecap="butt" stroke-linejoin="miter" stroke-miterlimit="10" stroke-dasharray="" stroke-dashoffset="0" font-family="none" font-weight="none" font-size="none" text-anchor="none" style="mix-blend-mode: normal" data-fill-palette-color="tertiary"></path></g><g transform="matrix(1,0,0,1,119.2030274434607,90)"><svg viewBox="0 0 81.5939451130786 180" height="180" width="81.5939451130786"><g><svg viewBox="0 0 81.5939451130786 180" height="180" width="81.5939451130786"><g><svg viewBox="0 0 124.98516320474778 275.72302510530926" height="180" width="81.5939451130786"><g transform="matrix(1,0,0,1,0,95.72302510530926)"><svg viewBox="0 0 124.98516320474778 180" height="180" width="124.98516320474778"><g id="textblocktransform"><svg viewBox="0 0 124.98516320474778 180" height="180" width="124.98516320474778" id="textblock"><g><svg viewBox="0 0 124.98516320474778 180" height="180" width="124.98516320474778"><g transform="matrix(1,0,0,1,0,0)"><svg width="124.98516320474778" viewBox="3.8499999046325684 -33.70000076293945 23.399999618530273 33.70000076293945" height="180" data-palette-color="#f0f0f0"><path d="M13.7-16.65L27.25 0 22 0 8.7-16.65 21.55-33.7 26.55-33.7 13.7-16.65ZM7.9-33.7L7.9 0 3.85 0 3.85-33.7 7.9-33.7Z" opacity="1" transform="matrix(1,0,0,1,0,0)" fill="#f0f0f0" class="wordmark-text-0" data-fill-palette-color="primary" id="text-0"></path></svg></g></svg></g></svg></g></svg></g><g transform="matrix(1,0,0,1,23.872166172106823,0)"><svg viewBox="0 0 77.24083086053413 69.45670510530925" height="69.45670510530925" width="77.24083086053413"><g><svg xmlns="http://www.w3.org/2000/svg" xmlns:xlink="http://www.w3.org/1999/xlink" version="1.0" x="0" y="0" viewBox="20.343509674072266 22.5 60.13711929321289 54.07666015625" enable-background="new 0 0 100 100" xml:space="preserve" height="69.45670510530925" width="77.24083086053413" class="icon-icon-0" data-fill-palette-color="accent" id="icon-0"><g fill="#f0f0f0" data-fill-palette-color="accent"><g fill="#f0f0f0" data-fill-palette-color="accent"><path d="M80.281 44.81l-2.421-3.237-0.075-3.554 2.28-3.338c0.242-0.355 0.23-0.826-0.03-1.169l-1.897-2.498c-0.26-0.343-0.707-0.48-1.118-0.342l-3.825 1.301-3.404-1.023-2.471-3.202c-0.265-0.342-0.719-0.475-1.121-0.334l-2.963 1.033c-0.406 0.142-0.677 0.528-0.671 0.958l0.056 4.035-2.029 2.928-3.805 1.358c-0.406 0.145-0.673 0.533-0.664 0.963l0.067 3.138c0.01 0.43 0.293 0.806 0.705 0.933l3.858 1.196 2.153 2.838 0.116 4.034c0.013 0.43 0.299 0.804 0.711 0.928l3.004 0.906c0.096 0.029 0.193 0.042 0.289 0.043 0.319 0 0.626-0.153 0.818-0.424l2.332-3.305 3.357-1.167 3.876 1.137c0.411 0.121 0.856-0.035 1.103-0.389l1.79-2.578C80.548 45.625 80.539 45.154 80.281 44.81zM77.28 46.824l-3.492-1.024c-0.198-0.058-0.414-0.054-0.609 0.015l-3.963 1.378c-0.197 0.068-0.368 0.197-0.489 0.368L66.625 50.539l-1.624-0.49-0.105-3.633c-0.007-0.208-0.077-0.41-0.203-0.576l-2.541-3.349c-0.126-0.167-0.302-0.289-0.501-0.35l-3.476-1.078-0.036-1.696 3.427-1.224c0.197-0.07 0.367-0.201 0.487-0.372l2.394-3.454c0.118-0.171 0.181-0.375 0.178-0.584l-0.05-3.634 1.602-0.559 2.226 2.886c0.128 0.166 0.304 0.287 0.504 0.347l4.019 1.207c0.201 0.06 0.413 0.057 0.61-0.011l3.445-1.172 1.026 1.351-2.055 3.008c-0.117 0.172-0.178 0.376-0.174 0.585l0.089 4.195c0.005 0.209 0.074 0.411 0.199 0.578l2.182 2.916L77.28 46.824z" fill="#f0f0f0" data-fill-palette-color="accent"></path><path d="M68.837 36.07c-2.158 0.046-3.878 1.84-3.832 3.999 0.022 1.046 0.45 2.021 1.206 2.744 0.734 0.704 1.693 1.089 2.708 1.089 0.028 0 0.057 0 0.085 0 2.159-0.047 3.879-1.841 3.833-3.999-0.022-1.046-0.451-2.021-1.206-2.745C70.875 36.435 69.872 36.046 68.837 36.07zM68.961 41.902c-1.049 0.015-1.935-0.819-1.956-1.875-0.022-1.057 0.818-1.935 1.875-1.957 0.014 0 0.027 0 0.042-0.001 0.496 0 0.966 0.188 1.325 0.533 0.369 0.354 0.579 0.831 0.59 1.343C70.859 41.001 70.018 41.879 68.961 41.902z" fill="#f0f0f0" data-fill-palette-color="accent"></path><path d="M50.862 52.391c0.452 0.153 0.948-0.035 1.187-0.448l3.014-5.221c0.238-0.413 0.152-0.937-0.206-1.251l-3.531-3.105-0.204-3.989 3.485-3.064c0.358-0.314 0.444-0.838 0.206-1.251l-3.014-5.221c-0.238-0.413-0.736-0.6-1.187-0.447L46.188 29.891l-3.633-2.097-0.915-4.494C41.545 22.834 41.136 22.5 40.66 22.5h-6.029c-0.476 0-0.885 0.334-0.98 0.8l-0.915 4.494-3.632 2.097-4.425-1.497c-0.451-0.152-0.948 0.034-1.187 0.447L20.478 34.063c-0.238 0.413-0.152 0.937 0.206 1.25l3.508 3.084v4.192l-3.508 3.084c-0.358 0.314-0.444 0.838-0.206 1.251l3.014 5.222c0.238 0.413 0.734 0.6 1.187 0.447l4.425-1.497 3.63 2.096 0.916 4.581c0.094 0.467 0.504 0.804 0.981 0.804h6.029c0.477 0 0.887-0.336 0.981-0.804l0.917-4.586 3.883-2.291L50.862 52.391zM45.82 48.94l-4.663 2.751c-0.245 0.145-0.417 0.386-0.472 0.665l-0.844 4.221h-4.391l-0.844-4.221c-0.057-0.282-0.231-0.526-0.48-0.67l-4.414-2.548c-0.248-0.143-0.546-0.173-0.82-0.081l-4.078 1.379-2.194-3.802 3.233-2.842c0.216-0.19 0.34-0.463 0.339-0.75v-5.097c0-0.288-0.124-0.562-0.339-0.751l-3.233-2.841 2.194-3.802 4.078 1.379c0.273 0.091 0.571 0.061 0.82-0.081l4.414-2.548c0.248-0.144 0.423-0.386 0.479-0.667L35.447 24.5H39.844l0.842 4.134c0.057 0.28 0.231 0.523 0.479 0.667l4.414 2.548c0.248 0.143 0.548 0.173 0.82 0.081l4.078-1.379 2.194 3.802-3.233 2.841c-0.229 0.202-0.354 0.497-0.338 0.802l0.25 4.894c0.014 0.27 0.136 0.522 0.338 0.7l3.233 2.842-2.194 3.801-4.079-1.379C46.371 48.761 46.07 48.792 45.82 48.94z" fill="#f0f0f0" data-fill-palette-color="accent"></path><path d="M37.771 33.809c-3.711 0-6.729 3.019-6.73 6.73 0 3.71 3.019 6.729 6.73 6.729S44.5 44.249 44.5 40.539C44.5 36.828 41.481 33.809 37.771 33.809zM37.771 45.268c-2.607 0-4.729-2.122-4.73-4.729s2.122-4.73 4.73-4.73S42.5 37.931 42.5 40.539 40.378 45.268 37.771 45.268z" fill="#f0f0f0" data-fill-palette-color="accent"></path><path d="M67.62 65.322L67.5 62.979l2.191-1.926c0.358-0.314 0.444-0.838 0.206-1.251l-2.001-3.466c-0.238-0.413-0.736-0.6-1.186-0.447l-2.793 0.944L61.77 55.594l-0.578-2.834c-0.095-0.466-0.504-0.8-0.979-0.801h-4.002c-0.476 0-0.885 0.334-0.98 0.801L54.654 55.594l-2.148 1.239-2.793-0.944c-0.451-0.152-0.948 0.034-1.187 0.447l-2.001 3.466c-0.238 0.413-0.152 0.937 0.206 1.251l2.215 1.947v2.477l-2.215 1.947c-0.358 0.314-0.444 0.838-0.206 1.251l2.001 3.466c0.238 0.413 0.735 0.599 1.187 0.447l2.793-0.945 2.146 1.238 0.578 2.892c0.094 0.467 0.504 0.804 0.981 0.804h4.002c0.477 0 0.887-0.336 0.98-0.804l0.579-2.897 2.316-1.366 2.788 0.943c0.452 0.153 0.948-0.035 1.187-0.447l2-3.466c0.238-0.413 0.152-0.937-0.206-1.251L67.62 65.322zM66.74 70.296L64.295 69.469c-0.276-0.093-0.579-0.062-0.828 0.086l-3.095 1.825c-0.245 0.145-0.417 0.386-0.473 0.665l-0.505 2.532h-2.364l-0.506-2.532c-0.057-0.282-0.231-0.526-0.48-0.67l-2.93-1.69c-0.248-0.143-0.546-0.173-0.82-0.081l-2.445 0.827-1.181-2.046 1.938-1.704c0.216-0.189 0.34-0.463 0.34-0.751V62.547c0-0.288-0.124-0.562-0.34-0.751l-1.938-1.704 1.181-2.046 2.445 0.827c0.272 0.092 0.571 0.062 0.82-0.081l2.93-1.691c0.248-0.144 0.423-0.386 0.479-0.667l0.504-2.475h2.369l0.504 2.475c0.057 0.28 0.231 0.523 0.48 0.666l2.929 1.692c0.248 0.144 0.547 0.174 0.82 0.081l2.445-0.827 1.181 2.046-1.939 1.704c-0.229 0.202-0.354 0.497-0.338 0.802l0.166 3.248c0.014 0.269 0.136 0.522 0.338 0.7L67.921 68.25 66.74 70.296z" fill="#f0f0f0" data-fill-palette-color="accent"></path><path d="M58.294 60.25c-2.215 0-4.018 1.803-4.018 4.018s1.803 4.018 4.018 4.018c2.216 0 4.019-1.803 4.019-4.018S60.51 60.25 58.294 60.25zM58.294 66.286c-1.112 0-2.018-0.905-2.018-2.018S57.182 62.25 58.294 62.25c1.113 0 2.019 0.905 2.019 2.018S59.407 66.286 58.294 66.286z" fill="#f0f0f0" data-fill-palette-color="accent"></path></g></g></svg></g></svg></g><g></g></svg></g></svg></g></svg></g></svg></g><defs></defs></svg><rect width="320" height="360" fill="none" stroke="none" visibility="hidden"></rect></g></svg></g></svg>